<svg height="512" viewBox="0 0 60 60" width="512" xmlns="http://www.w3.org/2000/svg"><g fill-rule="nonzero" transform="translate(0 -1)" fill="none"><path d="M3 51V12a3 3 0 013-3h48a3 3 0 013 3v39z" fill="#3f51b5"/><path d="M54 9h-3a3 3 0 013 3v39h3V12a3 3 0 00-3-3z" fill="#283593"/><path d="M7 7h6v29H7z" fill="#02a9f4"/><path d="M7 36h6v4a1 1 0 01-1 1H8a1 1 0 01-1-1z" fill="#e91e63"/><path d="M53 60H7a6 6 0 01-6-6v-2a1 1 0 011-1h56a1 1 0 011 1v2a6 6 0 01-6 6z" fill="#02a9f4"/><path d="M58 51h-3a1 1 0 011 1v2a6 6 0 01-6 6h3a6 6 0 006-6v-2a1 1 0 00-1-1zM20 51h20v2a3 3 0 01-3 3H23a3 3 0 01-3-3z" fill="#0377bc"/><path d="M48 3v7H17V3a1 1 0 011-1h29a1 1 0 011 1z" fill="#02a9f4"/><path d="M47 2h-3a1 1 0 011 1v7h3V3a1 1 0 00-1-1z" fill="#0377bc"/><path d="M17 10h31v41H17z" fill="#f5f5f5"/><path d="M45 10h3v41h-3z" fill="#cfd8dc"/><path d="M13 7l-2.106-4.42a.979.979 0 00-1.788 0L7 7z" fill="#ffe0b2"/><path d="M42.15 40l-6.55 6.42A1.987 1.987 0 0135 45V35c0-.535.217-1.047.6-1.42zM53 35v10c0 .535-.217 1.047-.6 1.42L45.85 40l6.55-6.42c.383.373.6.885.6 1.42z" fill="#ffdc00"/><path d="M52.4 33.58L50 35.932v8.136l2.4 2.352c.383-.373.6-.885.6-1.42V35c0-.535-.217-1.047-.6-1.42z" fill="#fec108"/><path d="M52.4 46.42c-.37.373-.875.582-1.4.58H37a1.964 1.964 0 01-1.4-.58L42.15 40l.44.43c.786.76 2.034.76 2.82 0l.44-.43z" fill="#ff9801"/><rect fill="#ffdc00" height="14" rx="2" width="18" x="35" y="15"/><path d="M51 15h-3a2 2 0 012 2v10a2 2 0 01-2 2h3a2 2 0 002-2V17a2 2 0 00-2-2z" fill="#fec108"/><path d="M52.4 33.58L45.85 40l-.44.43c-.786.76-2.034.76-2.82 0l-.44-.43-6.55-6.42c.37-.373.875-.582 1.4-.58h14a1.964 1.964 0 011.4.58z" fill="#ffeb3a"/><circle cx="41" cy="21" fill="#02a9f4" r="2"/><circle cx="23" cy="8" fill="#e91e63" r="2"/><path d="M35 17H23a1 1 0 00-1 1v2a1 1 0 001 1h12z" fill="#e91e63"/><path d="M16 56h-3a1 1 0 010-2h3a1 1 0 010 2z" fill="#0377bc"/><circle cx="5" cy="55" fill="#e91e63" r="1"/><circle cx="9" cy="55" fill="#ffdc00" r="1"/><g fill="#000"><path d="M58 50V12a4 4 0 00-4-4h-5V3a2 2 0 00-2-2H18a2 2 0 00-2 2v5h-2V7a.978.978 0 00-.1-.427h.007L11.8 2.149a1.979 1.979 0 00-3.594 0L6.1 6.57h.007A.978.978 0 006 7v1a4 4 0 00-4 4v38a2 2 0 00-2 2v2a7.008 7.008 0 007 7h46a7.008 7.008 0 007-7v-2a2 2 0 00-2-2zm-4-40a2 2 0 012 2v38h-7v-2h2a3 3 0 003-3V35a3 3 0 00-3-3h-2v-2h2a3 3 0 003-3V17a3 3 0 00-3-3h-2v-4zM40 50H18V11h29v3H37a3 3 0 00-2.816 2H23a2 2 0 00-2 2v2a2 2 0 002 2h11v5a3 3 0 003 3h10v2H37a3 3 0 00-3 3v10a3 3 0 003 3h10v2zm-19 2h18v1a2 2 0 01-2 2H23a2 2 0 01-2-2zm1-44a1 1 0 112 0 1 1 0 01-2 0zm15 20a1 1 0 01-1-1V17a1 1 0 011-1h14a1 1 0 011 1v10a1 1 0 01-1 1zm-3-8H23v-2h11zm3.457 26l4.721-4.627c1.073.83 2.572.83 3.645 0L50.543 46zM36 35.372L40.722 40 36 44.628zm16 9.256L47.278 40 52 35.372zm-7.288-4.914a1.025 1.025 0 01-1.423 0L37.457 34h13.086zM18 3h29v6H25.816c.118-.32.18-.659.184-1a3 3 0 00-6 0c.003.341.066.68.184 1H18zm-6 37H8v-3h4zM8 8h4v27H8zm3.416-2H8.578l1.414-2.99zM4 12a2 2 0 012-2v30a2 2 0 002 2h4a2 2 0 002-2V10h2v40H4zm54 42a5.006 5.006 0 01-5 5H7a5.006 5.006 0 01-5-5v-2h17v1a4 4 0 004 4h14a4 4 0 004-4v-1h17z"/><path d="M41 18a3 3 0 100 6 3 3 0 000-6zm0 4a1 1 0 110-2 1 1 0 010 2zM49 24h-3a1 1 0 000 2h3a1 1 0 000-2zM30 7h3a1 1 0 000-2h-3a1 1 0 000 2zM31 24h-7a1 1 0 000 2h7a1 1 0 000-2zM31 28h-7a1 1 0 000 2h7a1 1 0 000-2zM31 32h-7a1 1 0 000 2h7a1 1 0 000-2zM31 36h-7a1 1 0 000 2h7a1 1 0 000-2z"/></g></g></svg>