<svg xmlns="http://www.w3.org/2000/svg" viewBox="0 0 512.001 512.001"><path fill="#88acb5" d="M305.566 395.018v54.468l-49.565 21.787-49.566-21.787v-54.468z"/><path fill="#a7cbcf" d="M206.435 449.482h99.132v53.804h-99.132z"/><path d="M492.566 43.274h-32.681v336.471l43.945-21.787V54.538c0-6.188-5.065-11.264-11.264-11.264z" fill="#940044"/><path d="M459.885 43.274H19.435c-6.198 0-11.264 5.076-11.264 11.264v303.42l32.681 16.202v5.585H471.15V54.538c-.001-6.188-5.066-11.264-11.265-11.264z" fill="#c20035"/><path fill="#b7d9dd" d="M409.448 8.17v350.328h-43.574L387.661 8.17z"/><path fill="#c7e7eb" d="M102.553 8.17h285.108v361.221H102.553z"/><path fill="#ff0f47" d="M146.128 51.745h219.746v57.513H146.128z"/><path fill="#2f5e88" d="M146.128 283.561h129.307v85.842H146.128z"/><path d="M471.149 357.958l-11.264 66.473h32.681c6.198 0 11.264-5.066 11.264-11.264v-55.209h-32.681z" fill="#367596"/><path d="M8.171 357.958v55.209c0 6.198 5.066 11.264 11.264 11.264h440.451c6.198 0 11.264-5.066 11.264-11.264v-55.209H8.171z" fill="#5195af"/><path fill="#111449" d="M396.321 155.804l13.127 10.893 13.127-10.893-13.127-32.682z"/><path fill="#fff" d="M409.448 228.082l29.021-32.681-15.894-39.597h-26.254l-15.894 39.597z"/><path fill="#ffcd60" d="M380.427 445.073V195.402h36.254l10.894 271.458z"/><path fill="#f3a933" d="M416.681 461.434l21.788-16.361V195.401h-21.788z"/><path d="M416.681 446.162h21.787v29.391c0 16.003-13.018 29.021-29.021 29.021l7.234-58.412z" fill="#c20035"/><path d="M380.427 475.553c0 16.003 13.018 29.021 29.021 29.021 3.987 0 7.233-13.018 7.233-29.021v-29.391h-36.254v29.391z" fill="#ff0f47"/><path d="M492.565 35.653h-74.946V8.17a8.169 8.169 0 00-8.17-8.17H102.552a8.17 8.17 0 00-8.17 8.17v27.482H19.436C8.719 35.652.001 44.369.001 55.086v358.622c0 10.717 8.718 19.435 19.435 19.435h178.445v62.515h-77.06c-4.512 0-8.17 3.657-8.17 8.17s3.658 8.17 8.17 8.17h234.191c4.513 0 8.17-3.657 8.17-8.17s-3.657-8.17-8.17-8.17h-40.89v-62.515h33.625a8.169 8.169 0 008.17-8.17 8.169 8.169 0 00-8.17-8.17H19.436c-1.678 0-3.095-1.417-3.095-3.095V55.087c0-1.678 1.417-3.095 3.095-3.095h74.946v298.336H41.966a8.17 8.17 0 00-8.17 8.17 8.17 8.17 0 008.17 8.17h305.781a8.169 8.169 0 008.17-8.17 8.169 8.169 0 00-8.17-8.17h-64.146v-66.773a8.169 8.169 0 00-8.17-8.17H146.126a8.17 8.17 0 00-8.17 8.17v66.773h-27.234V43.833v-.011V16.34H401.28v74.446a8.17 8.17 0 008.17 8.17 8.169 8.169 0 008.17-8.17V51.993h74.946c1.678 0 3.095 1.417 3.095 3.095V413.71c0 1.678-1.417 3.095-3.095 3.095h-21.417a8.169 8.169 0 00-8.17 8.17 8.169 8.169 0 008.17 8.17h21.416c10.717 0 19.435-8.718 19.435-19.435V55.087c.001-10.717-8.718-19.434-19.435-19.434zM297.78 495.66h-83.56v-62.515h83.559v62.515zM154.297 291.726H267.26v58.603H154.297v-58.603z"/><path d="M446.536 194.521c-.017-.118-.031-.236-.053-.353a7.742 7.742 0 00-.123-.505c-.023-.085-.04-.171-.065-.256a7.55 7.55 0 00-.178-.512c-.024-.063-.041-.129-.066-.191l-.04-.1c-.008-.017-.014-.035-.021-.052l-28.958-72.128a8.171 8.171 0 00-15.164 0l-28.963 72.134-.013.032-.046.113c-.027.069-.047.141-.073.21-.06.162-.121.325-.17.491-.026.087-.045.176-.068.265-.044.166-.088.329-.121.499-.023.118-.036.236-.054.355-.022.142-.047.28-.061.424a8.23 8.23 0 00-.04.801V474.81c0 20.507 16.684 37.192 37.192 37.192 20.506 0 37.191-16.684 37.191-37.192V195.747a8.23 8.23 0 00-.04-.801c-.018-.144-.044-.284-.066-.425zm-57.938 9.396h41.701v233.326h-41.701V203.917zm20.85-58.522l16.936 42.182h-33.873l16.937-42.182zm0 350.265c-11.497 0-20.851-9.354-20.851-20.851v-21.225h41.702v21.225c-.001 11.496-9.354 20.851-20.851 20.851zM146.126 117.428h219.749a8.169 8.169 0 008.17-8.17V51.745a8.169 8.169 0 00-8.17-8.17H146.126a8.17 8.17 0 00-8.17 8.17v57.513a8.17 8.17 0 008.17 8.17zm8.171-57.513h203.409v41.172H154.297V59.915zM365.875 133.768H146.126a8.17 8.17 0 00-8.17 8.17 8.17 8.17 0 008.17 8.17h219.749a8.169 8.169 0 008.17-8.17 8.169 8.169 0 00-8.17-8.17zM275.43 177.343H146.126c-4.512 0-8.17 3.657-8.17 8.17s3.658 8.17 8.17 8.17H275.43c4.513 0 8.17-3.657 8.17-8.17s-3.657-8.17-8.17-8.17zM349.32 177.343h-41.208c-4.513 0-8.17 3.657-8.17 8.17s3.657 8.17 8.17 8.17h41.208c4.513 0 8.17-3.657 8.17-8.17s-3.657-8.17-8.17-8.17zM275.43 210.023H146.126c-4.512 0-8.17 3.657-8.17 8.17s3.658 8.17 8.17 8.17H275.43c4.513 0 8.17-3.657 8.17-8.17s-3.657-8.17-8.17-8.17zM347.747 210.023h-39.635c-4.513 0-8.17 3.657-8.17 8.17s3.657 8.17 8.17 8.17h39.635c4.513 0 8.17-3.657 8.17-8.17s-3.658-8.17-8.17-8.17zM275.43 242.704H146.126c-4.512 0-8.17 3.657-8.17 8.17s3.658 8.17 8.17 8.17H275.43c4.513 0 8.17-3.657 8.17-8.17s-3.657-8.17-8.17-8.17zM347.747 242.704h-39.635c-4.513 0-8.17 3.657-8.17 8.17s3.657 8.17 8.17 8.17h39.635c4.513 0 8.17-3.657 8.17-8.17s-3.658-8.17-8.17-8.17z"/></svg>